# xmcd
#
# Track frame offsets: 
#        151
#        17076
#        33055
#        49763
#        68301
#        83916
#        102760
#        118908
#        136413
#        151596
#        165656
#        182528
#        198189
#
# Disc length: 2857 seconds
#
# Revision: 4
# Processed by: cddbd v1.4PL0 Copyright (c) Steve Scherf et al.
# Submitted via: ExactAudioCopy v0.90b4
#
DISCID=940b270d
DTITLE=Farmer's Daughter - Best Of Farmer's Daughter
DYEAR=1900
DGENRE=Country
TTITLE0=Walkin' In The Sunshine
TTITLE1=Cornfields Or Cadillacs
TTITLE2=Blue Horizon
TTITLE3=Freeway
TTITLE4=You Said
TTITLE5=Borderline Angel
TTITLE6=Son Of A Preacher Man
TTITLE7=I Wanna Hold You
TTITLE8=Family Love
TTITLE9=Lonely Gypsy Wind
TTITLE10=Callin' All You Cowboys
TTITLE11=Now That I'm On My Own
TTITLE12=You And Only You
EXTD=
EXTT0=
EXTT1=
EXTT2=
EXTT3=
EXTT4=
EXTT5=
EXTT6=
EXTT7=
EXTT8=
EXTT9=
EXTT10=
EXTT11=
EXTT12=
PLAYORDER=
